<svg width="165" height="36" viewBox="0 0 165 36" fill="none" xmlns="http://www.w3.org/2000/svg">
<path d="M0 4C0 1.79086 1.79086 0 4 0H35.3778C37.587 0 39.3779 1.79086 39.3779 4V8C39.3779 21.2548 28.6327 32 15.3779 32H4.00001C1.79087 32 0 30.2091 0 28V4Z" fill="#F59E0B"/>
<path d="M4.92224 8C4.92224 5.79086 6.7131 4 8.92224 4H40.3001C42.5092 4 44.3001 5.79086 44.3001 8V12C44.3001 25.2548 33.5549 36 20.3001 36H8.92225C6.71311 36 4.92224 34.2091 4.92224 32V8Z" fill="#4BE4C9"/>
<path d="M60.4748 26V14.8H62.9068L66.9868 21.44L65.2428 21.424L69.3708 14.8H71.7068V26H69.0668V22.512C69.0668 21.552 69.0881 20.688 69.1308 19.92C69.1841 19.152 69.2694 18.3893 69.3868 17.632L69.6908 18.464L66.5868 23.28H65.5308L62.4908 18.496L62.7948 17.632C62.9121 18.3467 62.9921 19.0827 63.0348 19.84C63.0881 20.5867 63.1148 21.4773 63.1148 22.512V26H60.4748ZM78.2976 26.16C77.359 26.16 76.543 25.9733 75.8496 25.6C75.1563 25.216 74.6176 24.6987 74.2336 24.048C73.8496 23.3867 73.6576 22.6347 73.6576 21.792C73.6576 21.1413 73.7643 20.544 73.9776 20C74.191 19.456 74.4896 18.9867 74.8736 18.592C75.2576 18.1867 75.711 17.8773 76.2336 17.664C76.767 17.44 77.3483 17.328 77.9776 17.328C78.575 17.328 79.119 17.4347 79.6096 17.648C80.111 17.8613 80.543 18.16 80.9056 18.544C81.2683 18.928 81.5456 19.3813 81.7376 19.904C81.9296 20.4267 82.015 20.9973 81.9936 21.616L81.9776 22.304H75.2096L74.8416 20.864H79.8976L79.6256 21.168V20.848C79.6043 20.5813 79.519 20.3467 79.3696 20.144C79.231 19.9307 79.0443 19.7653 78.8096 19.648C78.575 19.5307 78.3083 19.472 78.0096 19.472C77.5936 19.472 77.2363 19.5573 76.9376 19.728C76.6496 19.888 76.431 20.128 76.2816 20.448C76.1323 20.7573 76.0576 21.1413 76.0576 21.6C76.0576 22.0693 76.1536 22.48 76.3456 22.832C76.5483 23.1733 76.8363 23.44 77.2096 23.632C77.5936 23.824 78.047 23.92 78.5696 23.92C78.9323 23.92 79.2523 23.8667 79.5296 23.76C79.8176 23.6533 80.127 23.472 80.4576 23.216L81.6576 24.912C81.327 25.2 80.975 25.4347 80.6016 25.616C80.2283 25.7973 79.8443 25.9307 79.4496 26.016C79.0656 26.112 78.6816 26.16 78.2976 26.16ZM86.8406 26.176C86.1046 26.176 85.4486 25.9893 84.8726 25.616C84.3073 25.232 83.8593 24.7093 83.5286 24.048C83.198 23.376 83.0326 22.6133 83.0326 21.76C83.0326 20.9067 83.198 20.1493 83.5286 19.488C83.8593 18.816 84.3126 18.288 84.8886 17.904C85.4646 17.52 86.126 17.328 86.8726 17.328C87.2566 17.328 87.6246 17.3867 87.9766 17.504C88.3286 17.6213 88.6486 17.7813 88.9366 17.984C89.2246 18.1867 89.4593 18.4213 89.6406 18.688C89.822 18.944 89.9286 19.2107 89.9606 19.488L89.3526 19.632V14.16H91.9286V26H89.5446L89.4006 24.064L89.9126 24.144C89.8806 24.4107 89.774 24.6667 89.5926 24.912C89.422 25.1573 89.198 25.376 88.9206 25.568C88.6433 25.7493 88.3233 25.8933 87.9606 26C87.6086 26.1173 87.2353 26.176 86.8406 26.176ZM87.4966 24.048C87.8913 24.048 88.2326 23.952 88.5206 23.76C88.8086 23.568 89.0273 23.3013 89.1766 22.96C89.3366 22.6187 89.4166 22.2187 89.4166 21.76C89.4166 21.2907 89.3366 20.8853 89.1766 20.544C89.0273 20.2027 88.8086 19.936 88.5206 19.744C88.2326 19.552 87.8913 19.456 87.4966 19.456C87.102 19.456 86.7606 19.552 86.4726 19.744C86.1953 19.936 85.9766 20.2027 85.8166 20.544C85.6566 20.8853 85.5766 21.2907 85.5766 21.76C85.5766 22.2187 85.6566 22.6187 85.8166 22.96C85.9766 23.3013 86.1953 23.568 86.4726 23.76C86.7606 23.952 87.102 24.048 87.4966 24.048ZM93.7734 22.576V20.224H99.3094V22.576H93.7734ZM104.673 26L100.193 14.8H103.025L105.185 20.512C105.313 20.8427 105.42 21.1307 105.505 21.376C105.601 21.6213 105.681 21.8507 105.745 22.064C105.82 22.2773 105.884 22.496 105.937 22.72C106.001 22.9333 106.071 23.1787 106.145 23.456H105.649C105.735 23.0933 105.82 22.7733 105.905 22.496C105.991 22.208 106.087 21.9147 106.193 21.616C106.3 21.3067 106.433 20.9387 106.593 20.512L108.673 14.8H111.457L106.945 26H104.673ZM115.751 26.16C114.812 26.16 113.996 25.9733 113.303 25.6C112.609 25.216 112.071 24.6987 111.687 24.048C111.303 23.3867 111.111 22.6347 111.111 21.792C111.111 21.1413 111.217 20.544 111.431 20C111.644 19.456 111.943 18.9867 112.327 18.592C112.711 18.1867 113.164 17.8773 113.687 17.664C114.22 17.44 114.801 17.328 115.431 17.328C116.028 17.328 116.572 17.4347 117.063 17.648C117.564 17.8613 117.996 18.16 118.359 18.544C118.721 18.928 118.999 19.3813 119.191 19.904C119.383 20.4267 119.468 20.9973 119.447 21.616L119.431 22.304H112.663L112.295 20.864H117.351L117.079 21.168V20.848C117.057 20.5813 116.972 20.3467 116.823 20.144C116.684 19.9307 116.497 19.7653 116.263 19.648C116.028 19.5307 115.761 19.472 115.463 19.472C115.047 19.472 114.689 19.5573 114.391 19.728C114.103 19.888 113.884 20.128 113.735 20.448C113.585 20.7573 113.511 21.1413 113.511 21.6C113.511 22.0693 113.607 22.48 113.799 22.832C114.001 23.1733 114.289 23.44 114.663 23.632C115.047 23.824 115.5 23.92 116.023 23.92C116.385 23.92 116.705 23.8667 116.983 23.76C117.271 23.6533 117.58 23.472 117.911 23.216L119.111 24.912C118.78 25.2 118.428 25.4347 118.055 25.616C117.681 25.7973 117.297 25.9307 116.903 26.016C116.519 26.112 116.135 26.16 115.751 26.16ZM121.078 26V17.504H123.51L123.622 20.272L123.142 19.744C123.27 19.2853 123.478 18.8747 123.766 18.512C124.064 18.1493 124.411 17.8613 124.806 17.648C125.2 17.4347 125.622 17.328 126.07 17.328C126.262 17.328 126.438 17.344 126.598 17.376C126.768 17.408 126.923 17.4453 127.062 17.488L126.358 20.32C126.24 20.2453 126.08 20.1867 125.878 20.144C125.686 20.0907 125.483 20.064 125.27 20.064C125.035 20.064 124.816 20.1067 124.614 20.192C124.411 20.2667 124.24 20.3787 124.102 20.528C123.963 20.6773 123.851 20.8533 123.766 21.056C123.691 21.2587 123.654 21.488 123.654 21.744V26H121.078ZM131.728 26.16C130.906 26.16 130.17 25.968 129.52 25.584C128.869 25.2 128.352 24.6773 127.968 24.016C127.594 23.344 127.408 22.5867 127.408 21.744C127.408 20.9013 127.594 20.1493 127.968 19.488C128.352 18.816 128.869 18.288 129.52 17.904C130.17 17.52 130.906 17.328 131.728 17.328C132.485 17.328 133.178 17.4613 133.808 17.728C134.448 17.9947 134.954 18.368 135.328 18.848L133.936 20.512C133.786 20.3413 133.61 20.1813 133.408 20.032C133.205 19.8827 132.981 19.7653 132.736 19.68C132.49 19.5947 132.234 19.552 131.968 19.552C131.562 19.552 131.205 19.648 130.896 19.84C130.586 20.0213 130.346 20.2773 130.176 20.608C130.005 20.9387 129.92 21.3173 129.92 21.744C129.92 22.1493 130.005 22.5173 130.176 22.848C130.357 23.1787 130.602 23.44 130.912 23.632C131.221 23.824 131.573 23.92 131.968 23.92C132.245 23.92 132.501 23.888 132.736 23.824C132.97 23.7493 133.184 23.6427 133.376 23.504C133.578 23.3653 133.765 23.1947 133.936 22.992L135.312 24.672C134.949 25.1307 134.442 25.4933 133.792 25.76C133.152 26.0267 132.464 26.16 131.728 26.16ZM140.766 26.16C139.828 26.16 139.012 25.9733 138.318 25.6C137.625 25.216 137.086 24.6987 136.702 24.048C136.318 23.3867 136.126 22.6347 136.126 21.792C136.126 21.1413 136.233 20.544 136.446 20C136.66 19.456 136.958 18.9867 137.342 18.592C137.726 18.1867 138.18 17.8773 138.702 17.664C139.236 17.44 139.817 17.328 140.446 17.328C141.044 17.328 141.588 17.4347 142.078 17.648C142.58 17.8613 143.012 18.16 143.374 18.544C143.737 18.928 144.014 19.3813 144.206 19.904C144.398 20.4267 144.484 20.9973 144.462 21.616L144.446 22.304H137.678L137.31 20.864H142.366L142.094 21.168V20.848C142.073 20.5813 141.988 20.3467 141.838 20.144C141.7 19.9307 141.513 19.7653 141.278 19.648C141.044 19.5307 140.777 19.472 140.478 19.472C140.062 19.472 139.705 19.5573 139.406 19.728C139.118 19.888 138.9 20.128 138.75 20.448C138.601 20.7573 138.526 21.1413 138.526 21.6C138.526 22.0693 138.622 22.48 138.814 22.832C139.017 23.1733 139.305 23.44 139.678 23.632C140.062 23.824 140.516 23.92 141.038 23.92C141.401 23.92 141.721 23.8667 141.998 23.76C142.286 23.6533 142.596 23.472 142.926 23.216L144.126 24.912C143.796 25.2 143.444 25.4347 143.07 25.616C142.697 25.7973 142.313 25.9307 141.918 26.016C141.534 26.112 141.15 26.16 140.766 26.16Z" fill="#1B1C57"/>
</svg>
